<svg xmlns="http://www.w3.org/2000/svg" width="31" height="31" viewBox="0 0 31 31"><g><g><path d="M31 15.5c0 4.142-1.611 8.03-4.54 10.96A15.391 15.391 0 0 1 15.5 31c-4.142 0-8.03-1.611-10.96-4.54A15.393 15.393 0 0 1 0 15.5c0-4.142 1.611-8.03 4.54-10.96A15.392 15.392 0 0 1 15.5 0c4.142 0 8.03 1.611 10.96 4.54A15.392 15.392 0 0 1 31 15.5zm-5.786-9.714A13.65 13.65 0 0 0 15.5 1.762a13.65 13.65 0 0 0-9.714 4.024C.43 11.142.43 19.858 5.786 25.214a13.648 13.648 0 0 0 9.714 4.025c3.666 0 7.117-1.429 9.714-4.025 5.356-5.356 5.356-14.072 0-19.428zm-2.884 4.13L16.746 15.5l5.57 5.584c.347.346.347.9 0 1.246a.847.847 0 0 1-.619.261.886.886 0 0 1-.62-.26l-5.584-5.585L9.91 22.33a.86.86 0 0 1-.62.261.887.887 0 0 1-.62-.26.879.879 0 0 1 0-1.247l5.585-5.584L8.67 9.916a.879.879 0 0 1 0-1.246.88.88 0 0 1 1.246 0l5.584 5.584 5.584-5.584a.88.88 0 0 1 1.246 0c.346.345.346.9 0 1.246z"/></g></g></svg>