<svg xmlns="http://www.w3.org/2000/svg" width="18" height="18" viewBox="0 0 18 18"><g><g><path d="M4.48 6.074v11.633c0 .161-.13.292-.29.292H.577c-.16 0-.29-.13-.29-.292V6.074c0-.16.13-.29.29-.29H4.19c.16 0 .29.13.29.29zm.286-3.687a2.388 2.388 0 0 1-2.382 2.387A2.39 2.39 0 0 1 0 2.387 2.389 2.389 0 0 1 2.384 0a2.387 2.387 0 0 1 2.382 2.387zM18 11.326v6.381c0 .161-.13.293-.29.293h-3.606a.292.292 0 0 1-.29-.293v-5.655c0-1.584-.117-2.795-1.586-2.795-1.35 0-1.876.755-1.876 2.694v5.756c0 .161-.13.292-.29.292H6.456a.291.291 0 0 1-.291-.292V6.074c0-.16.13-.29.291-.29h3.46c.16 0 .29.13.29.29v.754c.651-.71 1.724-1.334 3.176-1.334 4.07 0 4.617 2.95 4.617 5.832z"/></g></g></svg>