<svg xmlns="http://www.w3.org/2000/svg" width="20" height="20" viewBox="0 0 20 20"><g><g><path d="M10.197 20l-.199-.001a69.584 69.584 0 0 1-4.425-.12c-1.291-.08-2.47-.526-3.41-1.29-.905-.741-1.524-1.739-1.838-2.97-.274-1.072-.289-2.124-.302-3.143C.013 11.747 0 10.88 0 10.003c0-.886.012-1.75.022-2.48.013-1.017.028-2.07.302-3.142.314-1.23.933-2.23 1.838-2.968C3.103.646 4.282.201 5.573.122A68.271 68.271 0 0 1 10.002 0a69.124 69.124 0 0 1 4.425.122c1.292.08 2.47.524 3.41 1.291.906.738 1.525 1.738 1.839 2.968.273 1.071.288 2.125.301 3.142.01.73.022 1.594.023 2.474v.006c-.001.878-.013 1.744-.023 2.473-.013 1.02-.028 2.07-.301 3.143-.314 1.231-.933 2.229-1.84 2.97-.939.764-2.118 1.21-3.41 1.29-1.348.08-2.733.12-4.229.12zm-.199-1.563a68.43 68.43 0 0 0 4.335-.118c.976-.06 1.823-.377 2.517-.942.64-.523 1.082-1.246 1.312-2.146.228-.891.24-1.85.254-2.775.008-.725.019-1.585.021-2.456-.002-.871-.013-1.73-.021-2.454-.014-.927-.026-1.887-.254-2.779-.23-.9-.671-1.62-1.312-2.145-.694-.564-1.541-.88-2.517-.94a68.838 68.838 0 0 0-4.331-.12 68.873 68.873 0 0 0-4.334.12c-.977.06-1.824.376-2.517.94-.641.524-1.083 1.245-1.313 2.145-.227.892-.24 1.85-.254 2.779-.01.725-.02 1.584-.021 2.457.001.867.012 1.728.021 2.453.014.926.027 1.884.254 2.775.23.9.672 1.623 1.313 2.146.693.565 1.54.881 2.517.94 1.376.084 2.792.125 4.33.12zm-.038-3.553A4.89 4.89 0 0 1 5.078 10 4.888 4.888 0 0 1 9.96 5.118 4.887 4.887 0 0 1 14.843 10a4.889 4.889 0 0 1-4.883 4.884zm0-8.204A3.323 3.323 0 0 0 6.64 10c0 1.83 1.49 3.32 3.32 3.32 1.831 0 3.321-1.49 3.321-3.32 0-1.83-1.49-3.32-3.32-3.32zm6.603-1.954a1.173 1.173 0 1 1-2.345 0 1.173 1.173 0 0 1 2.345 0z"/></g></g></svg>