<svg xmlns="http://www.w3.org/2000/svg" width="76" height="76" viewBox="0 0 76 76"><g><g><path fill="#e4e4e4" d="M74.177 74.561c-.955.957-2.149 1.438-3.343 1.438-.637 0-1.353-.08-1.99-.4L56.19 69.84c-5.73 3.362-12.257 5.2-18.944 5.2-20.614 0-37.328-16.8-37.328-37.52C-.082 16.8 16.632 0 37.246 0c20.614 0 37.33 16.88 37.33 37.52 0 6.801-1.753 13.36-5.175 19.12l5.731 12.64c.797 1.841.398 3.921-.955 5.282zm-3.662-3.6L64.387 57.52c-.318-.798-.318-1.68.159-2.4a32.818 32.818 0 0 0 5.095-17.6c0-18-14.487-32.56-32.395-32.56C19.34 4.96 4.774 19.44 4.774 37.44 4.774 55.44 19.339 70 37.167 70c6.208 0 12.256-1.76 17.51-5.119.397-.24.875-.4 1.353-.4.398 0 .717.08 1.034.24zm-38.043-42.88c1.352 1.438 1.989 3.2 1.989 5.44 0 3.839-1.195 7.599-3.582 11.36a24.155 24.155 0 0 1-2.864 3.84c-.4.399-.956.399-1.354 0l-2.468-2.56a.876.876 0 0 1 0-1.201c.16-.24.398-.479.557-.72 1.116-1.52 2.309-3.68 2.547-5.76-1.512-.08-3.262-.399-4.297-1.68-1.035-1.28-1.592-2.719-1.592-4.32 0-1.68.716-3.2 1.99-4.48 1.273-1.36 2.786-2 4.537-2 1.67 0 3.262.72 4.537 2.08zm18.623 0c1.353 1.438 1.99 3.2 1.99 5.44 0 3.839-1.193 7.599-3.582 11.36a24.079 24.079 0 0 1-2.864 3.84c-.399.399-.956.399-1.354 0l-2.467-2.56a.874.874 0 0 1 0-1.201c.158-.24.397-.479.557-.72 1.114-1.52 2.308-3.68 2.547-5.76-1.51-.08-3.264-.399-4.297-1.68-1.035-1.28-1.593-2.719-1.593-4.32 0-1.68.717-3.2 1.99-4.48 1.272-1.36 2.786-2 4.536-2 1.752 0 3.265.72 4.537 2.08z"/></g></g></svg>