<svg xmlns="http://www.w3.org/2000/svg" width="25" height="20" viewBox="0 0 25 20"><g><g><path d="M7.862 19.999c9.435 0 14.594-7.694 14.594-14.366 0-.218-.005-.435-.015-.65a10.324 10.324 0 0 0 2.56-2.617c-.92.404-1.909.674-2.947.796A5.079 5.079 0 0 0 24.311.37c-.992.578-2.09 1-3.258 1.225A5.16 5.16 0 0 0 17.31 0c-2.833 0-5.13 2.262-5.13 5.049 0 .396.045.781.134 1.15A14.638 14.638 0 0 1 1.739.924a4.98 4.98 0 0 0-.693 2.538c0 1.752.905 3.298 2.282 4.203a5.147 5.147 0 0 1-2.324-.632v.064c0 2.445 1.768 4.489 4.115 4.95a5.155 5.155 0 0 1-2.317.087c.653 2.007 2.547 3.466 4.792 3.506a10.392 10.392 0 0 1-6.37 2.163c-.413 0-.822-.025-1.224-.071A14.687 14.687 0 0 0 7.862 20"/></g></g></svg>