<svg xmlns="http://www.w3.org/2000/svg" width="17" height="20" viewBox="0 0 17 20"><g><g><path d="M11.69 1.908v4.096c0 .247.003.378.01.39.023.167.104.246.24.246.208 0 .426-.16.655-.479V1.908h1.045v5.57h-1.045v-.616c-.405.464-.799.694-1.181.694-.352 0-.578-.138-.677-.413-.061-.178-.092-.46-.092-.838V1.908zM7.053 6.986c-.213-.282-.32-.72-.32-1.316V3.717c0-.595.107-1.03.32-1.306.29-.38.693-.57 1.205-.57.528 0 .933.19 1.216.57.214.276.322.711.322 1.306V5.67c0 .602-.108 1.042-.322 1.316-.283.38-.689.57-1.216.57-.512 0-.914-.19-1.205-.57zm.712-1.127c0 .523.165.781.493.781.329 0 .493-.258.493-.78V3.516c0-.515-.164-.771-.493-.771-.328 0-.493.256-.493.77zM5.334 7.478H4.187V4.453c-.107-.55-.34-1.339-.7-2.365A96.122 96.122 0 0 1 2.742 0h1.215l.815 2.934L5.552 0h1.17L5.334 4.453zm11.368 2.856c.2.834.298 2.136.298 3.907 0 1.742-.099 3.044-.298 3.907a2.113 2.113 0 0 1-.666 1.105 2.044 2.044 0 0 1-1.17.513c-1.406.156-3.53.234-6.367.234-2.836 0-4.959-.078-6.365-.234a2.072 2.072 0 0 1-1.177-.513 2.034 2.034 0 0 1-.66-1.105C.1 17.316 0 16.011 0 14.241c0-1.741.099-3.044.298-3.907.108-.439.33-.806.665-1.104.338-.297.73-.473 1.181-.525 1.401-.149 3.52-.223 6.356-.223 2.837 0 4.96.074 6.366.223.444.052.837.228 1.176.525.34.298.56.665.66 1.104zm-11.85 1.128v-1.048H1.274v1.048h1.205v6.35h1.147v-6.35zm3.097 6.35v-5.513H6.93v4.219c-.23.312-.448.47-.654.47-.139 0-.218-.08-.241-.236a3.064 3.064 0 0 1-.012-.391v-4.062h-1.02v4.363c0 .365.03.637.091.815.092.276.313.413.665.413.368 0 .758-.226 1.17-.68v.602zm3.9-3.849c0-.545-.034-.913-.103-1.106-.13-.417-.401-.624-.814-.624-.383 0-.738.2-1.067.602v-2.422h-1.02v7.399h1.02v-.535c.344.409.7.613 1.067.613.413 0 .684-.204.814-.613.07-.2.103-.572.103-1.117zm3.878 1.284v-1.15c0-.59-.104-1.02-.31-1.295-.299-.38-.704-.569-1.216-.569-.52 0-.93.19-1.228.569-.214.274-.32.706-.32 1.295v1.93c0 .589.11 1.018.332 1.294.298.38.71.57 1.24.57.55 0 .963-.197 1.238-.592.138-.202.217-.402.24-.602.016-.069.024-.283.024-.647v-.147h-1.044c0 .38-.008.608-.023.683-.053.266-.206.401-.46.401-.35 0-.526-.258-.526-.77v-.97zm-1.02-1.351v.512h-1.033v-.512c0-.507.171-.76.515-.76.345 0 .517.253.517.76zm-3.878-.012v2.355c0 .498-.15.748-.447.748-.177 0-.349-.083-.517-.247v-3.359c.168-.164.34-.245.517-.245.298 0 .446.25.447.748z"/></g></g></svg>