<svg xmlns="http://www.w3.org/2000/svg" width="111" height="43" viewBox="0 0 111 43"><g><g><g><path d="M.325 21.078h2.85c.74 0 1.393.149 1.96.445.567.297 1.007.71 1.32 1.24.313.53.47 1.135.47 1.815 0 .68-.157 1.285-.47 1.815-.313.53-.753.943-1.32 1.24-.567.297-1.22.445-1.96.445H.325zm2.81 6.36c.613 0 1.15-.121 1.61-.365a2.65 2.65 0 0 0 1.07-1.01c.253-.43.38-.925.38-1.485s-.127-1.055-.38-1.485a2.656 2.656 0 0 0-1.07-1.01c-.46-.243-.997-.365-1.61-.365h-2.07v5.72zm10.4 0v.64h-4.95v-7h4.8v.64h-4.06v2.49h3.62v.63h-3.62v2.6zm3.67.7c-.52 0-1.019-.083-1.495-.25-.477-.166-.845-.387-1.105-.66l.29-.57c.253.254.59.459 1.01.615.42.157.853.235 1.3.235.626 0 1.097-.115 1.41-.345.313-.23.47-.528.47-.895 0-.28-.085-.503-.255-.67a1.723 1.723 0 0 0-.625-.385c-.247-.09-.59-.188-1.03-.295a10.773 10.773 0 0 1-1.26-.385 2.06 2.06 0 0 1-.805-.565c-.223-.253-.335-.596-.335-1.03 0-.353.093-.675.28-.965.187-.29.473-.522.86-.695.387-.173.866-.26 1.44-.26.4 0 .792.055 1.175.165.383.11.715.262.995.455l-.25.59a3.437 3.437 0 0 0-.94-.435 3.501 3.501 0 0 0-.98-.145c-.613 0-1.075.118-1.385.355-.31.237-.465.542-.465.915 0 .28.085.505.255.675.17.17.383.3.64.39.257.09.602.189 1.035.295.513.127.928.252 1.245.375.317.124.585.31.805.56.22.25.33.588.33 1.015 0 .354-.095.675-.285.965-.19.29-.482.52-.875.69-.393.17-.877.255-1.45.255zm4.22-7.06h.74v7h-.74zm7.95 3.5h.71v2.67a3.422 3.422 0 0 1-1.16.66c-.447.154-.917.23-1.41.23-.7 0-1.33-.153-1.89-.46a3.4 3.4 0 0 1-1.32-1.275 3.53 3.53 0 0 1-.48-1.825c0-.673.16-1.282.48-1.825a3.4 3.4 0 0 1 1.32-1.275c.56-.306 1.193-.46 1.9-.46.533 0 1.023.085 1.47.255.447.17.823.422 1.13.755l-.46.47c-.554-.547-1.257-.82-2.11-.82-.567 0-1.078.125-1.535.375a2.75 2.75 0 0 0-1.075 1.04c-.26.444-.39.939-.39 1.485 0 .547.13 1.04.39 1.48.26.44.617.787 1.07 1.04.453.253.963.38 1.53.38.72 0 1.33-.18 1.83-.54zm8.65-3.5v7h-.61l-4.5-5.68v5.68h-.74v-7h.61l4.51 5.68v-5.68zm9.31 3.39c.46.1.815.299 1.065.595.25.297.375.678.375 1.145 0 .6-.222 1.062-.665 1.385-.443.324-1.099.485-1.965.485h-3.22v-7h3.02c.78 0 1.385.157 1.815.47.43.313.645.757.645 1.33 0 .387-.095.715-.285.985a1.71 1.71 0 0 1-.785.605zm-3.67-2.78v2.54h2.23c.567 0 1.003-.108 1.31-.325.307-.216.46-.531.46-.945 0-.413-.153-.728-.46-.945-.307-.216-.743-.325-1.31-.325zm2.47 5.78c.627 0 1.1-.106 1.42-.32.32-.213.48-.547.48-1 0-.873-.633-1.31-1.9-1.31h-2.47v2.63zm6.58-1.81v2.42h-.73v-2.42l-2.8-4.58h.79l2.4 3.93 2.4-3.93h.74z"/></g><g><g><path fill="#2adcaa" d="M95.153 5.542c-.338-2.132-8.104-2.804-12.835-1.91-2.71.512-4.667 1.203-7.89 2.987-7.379 4.082-9.209 9.899-9.415 14.208-.206 4.309 1.905 9.362 7.166 14.494 6.015 5.868 11.93 8.167 16.72 7.606 4.792-.56 9.648-3.499 13.7-10.261 3.972-6.625 4.151-12.179 3.092-15.5-.932-2.918-3.287-6.117-7.94-6.6-5.574-.58-11.356 1.384-10.748 4.95.439 2.579 2.53 2.213 6.112 1.795.607-.071 2.3.05 2.6 2.152.1.699-.683 1.854-1.827 2.296-1.539.595-3.615.64-4.145 1.794-1.498 3.262 1.102 12.578-3.864 12.845-1.66.089-3.027-1.057-3.943-6.657-.35-2.136-.734-5.004-1.379-7.861-.967-4.29-1.73-5.34-1.563-7.512.156-2.043.89-3.405 4.285-5.382 1.18-.685 3.38-1.427 5.282-1.75 3.455-.588 6.764-.602 6.592-1.694z"/></g><g><path fill="#299393" d="M74.427 6.619s-3.708 1.667-6.533 5.596c-2.385 3.317-2.795 6.816-2.881 8.612-.206 4.309 1.905 9.362 7.166 14.494 6.015 5.868 11.93 8.167 16.72 7.606 4.792-.56 9.648-3.499 13.7-10.261-6.713 11.203-15.6 10.84-27.258 1.077-14.68-12.295-.914-27.124-.914-27.124z"/></g><g><path fill="#31d3ac" d="M69.107 37.884c.652 0 1.181.543 1.181 1.214 0 .67-.529 1.215-1.181 1.215s-1.18-.544-1.18-1.215c0-.67.528-1.214 1.18-1.214z"/></g><g><path fill="#2addaa" d="M109.537 10.802c.808 0 1.463.67 1.463 1.498s-.655 1.5-1.463 1.5-1.463-.672-1.463-1.5c0-.827.655-1.498 1.463-1.498z"/></g><g><path fill="#2adcaa" d="M101.759 0c1.758 0 3.183 1.458 3.183 3.256 0 1.798-1.425 3.256-3.183 3.256-1.758 0-3.183-1.458-3.183-3.256C98.576 1.458 100 0 101.759 0z"/></g><g><path fill="#367e87" d="M84.263 8.485s-7.423 2.933-7.025 7.318c.185 2.04.707 3.768 1.264 5.239.739 1.95 2.06 6.683 2.454 8.268.865 3.484 2.291 7.876 4.642 8.092 3.08.214 3.598-5.452 4.015-9.505.203-1.983.305-3.406.832-3.913.39-.376.83-.624 1.566-.769 1.028-.202 2.116-.034 2.931-.38.815-.344 1.271-1.037 1.405-1.793.126-.713-.251-1.53-.913-2.655.94 1.598-.34 2.793-1.335 3.3-1.088.556-2.265.545-3.162.934-.59.254-1.034.54-1.194.86-.435.872-.5 2.736-.53 4.785-.055 3.65-.152 7.884-3.123 8.132-1.462.12-2.557-.782-3.162-2.583a23.416 23.416 0 0 1-1.053-4.521c-.224-1.65-.503-2.967-.703-4.306-.944-6.322-2.244-6.769-2.108-11.194.092-3.005 5.2-5.31 5.2-5.31z"/></g></g></g></g></svg>